<svg width="135" height="140" viewBox="0 0 135 140" fill="none" xmlns="http://www.w3.org/2000/svg">
<circle cx="67.5" cy="67.5" r="65" fill="black" stroke="url(#paint0_linear)" stroke-width="5"/>
<path d="M42.9038 53.8711H54.5591C56.3315 53.8711 57.8265 53.2982 59.0439 52.1523C60.2793 51.0065 60.897 49.3773 60.897 47.2646C60.897 45.707 60.2524 44.3105 58.9634 43.0752C57.6743 41.8219 56.2062 41.1953 54.5591 41.1953H37.9624V76H36.0288V39.2617H54.5591C56.7433 39.2617 58.668 40.0763 60.333 41.7056C61.998 43.3169 62.8306 45.1699 62.8306 47.2646C62.8306 49.8428 62.0249 51.9106 60.4136 53.4683C58.8022 55.0259 56.8507 55.8047 54.5591 55.8047H42.9038V53.8711ZM42.9038 57.7383H54.5591C57.3521 57.7383 59.7511 56.7625 61.7563 54.811C63.7616 52.8416 64.7642 50.3262 64.7642 47.2646C64.7642 44.6328 63.7347 42.3232 61.6758 40.3359C59.6348 38.3307 57.2625 37.3281 54.5591 37.3281H34.0952V76H32.1616V35.3945H54.5591C56.6896 35.3945 58.6859 35.9406 60.5479 37.0327C62.4277 38.1248 63.9227 39.5929 65.0327 41.437C66.1427 43.2632 66.6978 45.2057 66.6978 47.2646C66.6978 50.7917 65.4982 53.7458 63.0991 56.127C60.7179 58.4902 57.8713 59.6719 54.5591 59.6719H42.9038V57.7383ZM42.9038 61.6055H54.5591C57.0656 61.6055 59.3931 60.9878 61.5415 59.7524C63.6899 58.5171 65.4087 56.7983 66.6978 54.5962C67.9868 52.3761 68.6313 49.9323 68.6313 47.2646C68.6313 44.8477 67.9868 42.5828 66.6978 40.4702C65.4266 38.3397 63.7078 36.6388 61.5415 35.3677C59.3752 34.0965 57.0477 33.4609 54.5591 33.4609H30.228V76H28.2944V31.5273H54.5591C57.37 31.5273 60.0107 32.2524 62.4814 33.7026C64.9521 35.1349 66.9126 37.0685 68.3628 39.5034C69.8309 41.9204 70.5649 44.5075 70.5649 47.2646C70.5649 50.4515 69.8757 53.2534 68.4971 55.6704C67.1364 58.0874 65.2834 59.9762 62.938 61.3369L67.9331 76H65.8921L61.1118 62.25C60.3957 62.5365 59.8496 62.7334 59.4736 62.8408L63.9585 76H61.9175L57.54 63.2974C57.3789 63.3332 56.806 63.3958 55.8213 63.4854L59.9839 76H57.9429L53.834 63.5391H52.0884L56.0093 76H53.9683L50.0205 63.5391H42.9038V61.6055ZM41.8296 76H39.896V43.1289H54.5591C55.7586 43.1289 56.7881 43.5407 57.6475 44.3643C58.5247 45.1699 58.9634 46.1367 58.9634 47.2646C58.9634 50.3799 57.4953 51.9375 54.5591 51.9375H42.9038V50.0039H54.5591C55.3289 50.0039 55.9287 49.807 56.3584 49.4131C56.806 49.0013 57.0298 48.2852 57.0298 47.2646C57.0298 46.638 56.7881 46.1188 56.3047 45.707C55.8392 45.2773 55.2573 45.0625 54.5591 45.0625H41.8296V76Z" fill="white"/>
<path d="M86.9551 89.5957L85.9004 91.9102L73.2441 65.4844H75.3535L86.9551 89.5957ZM89.0645 84.9668L87.9805 87.2812L77.4629 65.4844H79.5723L89.0645 84.9668ZM91.1738 80.3672L90.1191 82.6816L81.6816 65.4844H83.791L91.1738 80.3672ZM88.5078 97.6523L103.771 65.4844H105.881L90.6172 97.6523V114H88.5078V97.6523ZM92.7266 97.6523L107.99 65.4844H110.1L94.8359 97.6523V114H92.7266V97.6523ZM96.9453 97.6523L112.209 65.4844H114.318L99.0547 97.6523V114H96.9453V97.6523ZM85.3438 95.4258L99.5527 65.4844H101.662L86.3984 97.6523V114H84.2891V97.6523L69.0254 65.4844H71.1348L85.3438 95.4258Z" fill="white"/>
<path d="M25.9945 91.375H26.2758L24.5063 95.1016V97H24.225V95.1016L25.9945 91.375ZM25.432 91.375H25.7133L23.9438 95.1016V97H23.6625V95.1016L25.432 91.375ZM24.8695 91.375H25.1508L23.3813 95.1016V97H23.1V95.1016L24.8695 91.375ZM24.307 91.375H24.5883L22.8188 95.1016V97H22.5375V95.1016L20.6508 91.375H20.932L22.6742 94.8164L24.307 91.375ZM21.2172 91.375H21.4984L22.893 94.0273L22.7523 94.3359L21.2172 91.375ZM21.7797 91.375H22.0648L23.1742 93.4102L23.0297 93.7188L21.7797 91.375ZM22.35 91.375H22.6313L23.4555 92.7969L23.3148 93.1055L22.35 91.375ZM29.3047 93.3945C29.0859 93.6133 28.9766 93.8776 28.9766 94.1875C28.9766 94.4974 29.0859 94.763 29.3047 94.9844C29.526 95.2031 29.7917 95.3125 30.1016 95.3125C30.4115 95.3125 30.6758 95.2031 30.8945 94.9844C31.1159 94.763 31.2266 94.4974 31.2266 94.1875C31.2266 93.8776 31.1159 93.6133 30.8945 93.3945C30.6758 93.1732 30.4115 93.0625 30.1016 93.0625C29.7917 93.0625 29.526 93.1732 29.3047 93.3945ZM29.1055 95.1836C28.832 94.9076 28.6953 94.5755 28.6953 94.1875C28.6953 93.7995 28.832 93.4688 29.1055 93.1953C29.3815 92.9193 29.7135 92.7812 30.1016 92.7812C30.4896 92.7812 30.8203 92.9193 31.0938 93.1953C31.3698 93.4688 31.5078 93.7995 31.5078 94.1875C31.5078 94.5755 31.3698 94.9076 31.0938 95.1836C30.8203 95.457 30.4896 95.5938 30.1016 95.5938C29.7135 95.5938 29.3815 95.457 29.1055 95.1836ZM28.9062 92.9961C28.5781 93.3268 28.4141 93.724 28.4141 94.1875C28.4141 94.651 28.5781 95.0482 28.9062 95.3789C29.237 95.7096 29.6354 95.875 30.1016 95.875C30.5677 95.875 30.9648 95.7096 31.293 95.3789C31.6237 95.0482 31.7891 94.651 31.7891 94.1875C31.7891 93.724 31.6237 93.3268 31.293 92.9961C30.9648 92.6654 30.5677 92.5 30.1016 92.5C29.6354 92.5 29.237 92.6654 28.9062 92.9961ZM28.3945 95.1758C28.2201 94.8737 28.1328 94.5443 28.1328 94.1875C28.1328 93.8307 28.2201 93.5013 28.3945 93.1992C28.5716 92.8971 28.8112 92.6589 29.1133 92.4844C29.4154 92.3073 29.7448 92.2188 30.1016 92.2188C30.4583 92.2188 30.7878 92.3073 31.0898 92.4844C31.3919 92.6589 31.6302 92.8971 31.8047 93.1992C31.9818 93.5013 32.0703 93.8307 32.0703 94.1875C32.0703 94.5443 31.9818 94.8737 31.8047 95.1758C31.6302 95.4779 31.3919 95.7174 31.0898 95.8945C30.7878 96.069 30.4583 96.1562 30.1016 96.1562C29.7448 96.1562 29.4154 96.069 29.1133 95.8945C28.8112 95.7174 28.5716 95.4779 28.3945 95.1758ZM28.0273 93.3164C27.9102 93.5924 27.8516 93.8828 27.8516 94.1875C27.8516 94.4922 27.9102 94.7839 28.0273 95.0625C28.1471 95.3385 28.3073 95.5781 28.5078 95.7812C28.7109 95.9818 28.9505 96.1419 29.2266 96.2617C29.5052 96.3789 29.7969 96.4375 30.1016 96.4375C30.4062 96.4375 30.6966 96.3789 30.9727 96.2617C31.2513 96.1419 31.4909 95.9818 31.6914 95.7812C31.8945 95.5781 32.0547 95.3385 32.1719 95.0625C32.2917 94.7839 32.3516 94.4922 32.3516 94.1875C32.3516 93.8828 32.2917 93.5924 32.1719 93.3164C32.0547 93.0378 31.8945 92.7982 31.6914 92.5977C31.4909 92.3945 31.2513 92.2344 30.9727 92.1172C30.6966 91.9974 30.4062 91.9375 30.1016 91.9375C29.7969 91.9375 29.5052 91.9974 29.2266 92.1172C28.9505 92.2344 28.7109 92.3945 28.5078 92.5977C28.3073 92.7982 28.1471 93.0378 28.0273 93.3164ZM27.7695 95.1719C27.6367 94.8594 27.5703 94.5312 27.5703 94.1875C27.5703 93.8438 27.6367 93.5156 27.7695 93.2031C27.9049 92.8906 28.0846 92.6224 28.3086 92.3984C28.5352 92.1719 28.8047 91.9922 29.1172 91.8594C29.4297 91.724 29.7578 91.6562 30.1016 91.6562C30.4453 91.6562 30.7734 91.724 31.0859 91.8594C31.3984 91.9922 31.6667 92.1719 31.8906 92.3984C32.1172 92.6224 32.2969 92.8906 32.4297 93.2031C32.5651 93.5156 32.6328 93.8438 32.6328 94.1875C32.6328 94.5312 32.5651 94.8594 32.4297 95.1719C32.2969 95.4844 32.1172 95.7539 31.8906 95.9805C31.6667 96.2044 31.3984 96.3841 31.0859 96.5195C30.7734 96.6523 30.4453 96.7188 30.1016 96.7188C29.7578 96.7188 29.4297 96.6523 29.1172 96.5195C28.8047 96.3841 28.5352 96.2044 28.3086 95.9805C28.0846 95.7539 27.9049 95.4844 27.7695 95.1719ZM27.5117 93.0977C27.3633 93.444 27.2891 93.8073 27.2891 94.1875C27.2891 94.5677 27.3633 94.9323 27.5117 95.2812C27.6602 95.6276 27.8594 95.9271 28.1094 96.1797C28.362 96.4297 28.6615 96.6289 29.0078 96.7773C29.3568 96.9258 29.7214 97 30.1016 97C30.4818 97 30.8451 96.9258 31.1914 96.7773C31.5404 96.6289 31.8398 96.4297 32.0898 96.1797C32.3424 95.9271 32.543 95.6276 32.6914 95.2812C32.8398 94.9323 32.9141 94.5677 32.9141 94.1875C32.9141 93.8073 32.8398 93.444 32.6914 93.0977C32.543 92.7487 32.3424 92.4492 32.0898 92.1992C31.8398 91.9466 31.5404 91.7461 31.1914 91.5977C30.8451 91.4492 30.4818 91.375 30.1016 91.375C29.7214 91.375 29.3568 91.4492 29.0078 91.5977C28.6615 91.7461 28.362 91.9466 28.1094 92.1992C27.8594 92.4492 27.6602 92.7487 27.5117 93.0977ZM27.2539 95.3906C27.0898 95.0078 27.0078 94.6068 27.0078 94.1875C27.0078 93.7682 27.0898 93.3685 27.2539 92.9883C27.418 92.6055 27.638 92.276 27.9141 92C28.1901 91.724 28.5182 91.5039 28.8984 91.3398C29.2812 91.1758 29.6823 91.0938 30.1016 91.0938C30.5208 91.0938 30.9206 91.1758 31.3008 91.3398C31.6836 91.5039 32.013 91.724 32.2891 92C32.5651 92.276 32.7852 92.6055 32.9492 92.9883C33.1133 93.3685 33.1953 93.7682 33.1953 94.1875C33.1953 94.6068 33.1133 95.0078 32.9492 95.3906C32.7852 95.7708 32.5651 96.099 32.2891 96.375C32.013 96.651 31.6836 96.8711 31.3008 97.0352C30.9206 97.1992 30.5208 97.2812 30.1016 97.2812C29.6823 97.2812 29.2812 97.1992 28.8984 97.0352C28.5182 96.8711 28.1901 96.651 27.9141 96.375C27.638 96.099 27.418 95.7708 27.2539 95.3906ZM40.1383 91.375H39.8258L38.2594 94.2109L39.8023 97H40.1148L38.5719 94.2109L40.1383 91.375ZM39.5094 91.375H39.1969L37.6305 94.2109L39.1734 97H39.4859L37.943 94.2109L39.5094 91.375ZM38.8805 91.375H38.568L37.0016 94.2109L38.5445 97H38.857L37.3141 94.2109L38.8805 91.375ZM38.2516 91.375H37.9391L36.3688 94.2109L37.9156 97H38.2281L36.6813 94.2109L38.2516 91.375ZM35.9156 91.375H36.1969V97H35.9156V91.375ZM35.3531 91.375H35.6344V97H35.3531V91.375ZM34.7906 91.375H35.0719V97H34.7906V91.375ZM34.2281 91.375H34.5094V97H34.2281V91.375ZM43.1906 93.3945C42.9719 93.6133 42.8625 93.8776 42.8625 94.1875C42.8625 94.4974 42.9719 94.763 43.1906 94.9844C43.412 95.2031 43.6776 95.3125 43.9875 95.3125C44.2974 95.3125 44.5617 95.2031 44.7805 94.9844C45.0018 94.763 45.1125 94.4974 45.1125 94.1875C45.1125 93.8776 45.0018 93.6133 44.7805 93.3945C44.5617 93.1732 44.2974 93.0625 43.9875 93.0625C43.6776 93.0625 43.412 93.1732 43.1906 93.3945ZM42.9914 95.1836C42.718 94.9076 42.5813 94.5755 42.5813 94.1875C42.5813 93.7995 42.718 93.4688 42.9914 93.1953C43.2675 92.9193 43.5995 92.7812 43.9875 92.7812C44.3755 92.7812 44.7063 92.9193 44.9797 93.1953C45.2557 93.4688 45.3938 93.7995 45.3938 94.1875C45.3938 94.5755 45.2557 94.9076 44.9797 95.1836C44.7063 95.457 44.3755 95.5938 43.9875 95.5938C43.5995 95.5938 43.2675 95.457 42.9914 95.1836ZM42.7922 92.9961C42.4641 93.3268 42.3 93.724 42.3 94.1875C42.3 94.651 42.4641 95.0482 42.7922 95.3789C43.1229 95.7096 43.5214 95.875 43.9875 95.875C44.4536 95.875 44.8508 95.7096 45.1789 95.3789C45.5096 95.0482 45.675 94.651 45.675 94.1875C45.675 93.724 45.5096 93.3268 45.1789 92.9961C44.8508 92.6654 44.4536 92.5 43.9875 92.5C43.5214 92.5 43.1229 92.6654 42.7922 92.9961ZM42.2805 95.1758C42.106 94.8737 42.0188 94.5443 42.0188 94.1875C42.0188 93.8307 42.106 93.5013 42.2805 93.1992C42.4576 92.8971 42.6971 92.6589 42.9992 92.4844C43.3013 92.3073 43.6307 92.2188 43.9875 92.2188C44.3443 92.2188 44.6737 92.3073 44.9758 92.4844C45.2779 92.6589 45.5161 92.8971 45.6906 93.1992C45.8677 93.5013 45.9563 93.8307 45.9563 94.1875C45.9563 94.5443 45.8677 94.8737 45.6906 95.1758C45.5161 95.4779 45.2779 95.7174 44.9758 95.8945C44.6737 96.069 44.3443 96.1562 43.9875 96.1562C43.6307 96.1562 43.3013 96.069 42.9992 95.8945C42.6971 95.7174 42.4576 95.4779 42.2805 95.1758ZM41.9133 93.3164C41.7961 93.5924 41.7375 93.8828 41.7375 94.1875C41.7375 94.4922 41.7961 94.7839 41.9133 95.0625C42.0331 95.3385 42.1932 95.5781 42.3938 95.7812C42.5969 95.9818 42.8365 96.1419 43.1125 96.2617C43.3911 96.3789 43.6828 96.4375 43.9875 96.4375C44.2922 96.4375 44.5826 96.3789 44.8586 96.2617C45.1372 96.1419 45.3768 95.9818 45.5773 95.7812C45.7805 95.5781 45.9406 95.3385 46.0578 95.0625C46.1776 94.7839 46.2375 94.4922 46.2375 94.1875C46.2375 93.8828 46.1776 93.5924 46.0578 93.3164C45.9406 93.0378 45.7805 92.7982 45.5773 92.5977C45.3768 92.3945 45.1372 92.2344 44.8586 92.1172C44.5826 91.9974 44.2922 91.9375 43.9875 91.9375C43.6828 91.9375 43.3911 91.9974 43.1125 92.1172C42.8365 92.2344 42.5969 92.3945 42.3938 92.5977C42.1932 92.7982 42.0331 93.0378 41.9133 93.3164ZM41.6555 95.1719C41.5227 94.8594 41.4563 94.5312 41.4563 94.1875C41.4563 93.8438 41.5227 93.5156 41.6555 93.2031C41.7909 92.8906 41.9706 92.6224 42.1945 92.3984C42.4211 92.1719 42.6906 91.9922 43.0031 91.8594C43.3156 91.724 43.6438 91.6562 43.9875 91.6562C44.3313 91.6562 44.6594 91.724 44.9719 91.8594C45.2844 91.9922 45.5526 92.1719 45.7766 92.3984C46.0031 92.6224 46.1828 92.8906 46.3156 93.2031C46.451 93.5156 46.5188 93.8438 46.5188 94.1875C46.5188 94.5312 46.451 94.8594 46.3156 95.1719C46.1828 95.4844 46.0031 95.7539 45.7766 95.9805C45.5526 96.2044 45.2844 96.3841 44.9719 96.5195C44.6594 96.6523 44.3313 96.7188 43.9875 96.7188C43.6438 96.7188 43.3156 96.6523 43.0031 96.5195C42.6906 96.3841 42.4211 96.2044 42.1945 95.9805C41.9706 95.7539 41.7909 95.4844 41.6555 95.1719ZM41.3977 93.0977C41.2492 93.444 41.175 93.8073 41.175 94.1875C41.175 94.5677 41.2492 94.9323 41.3977 95.2812C41.5461 95.6276 41.7453 95.9271 41.9953 96.1797C42.2479 96.4297 42.5474 96.6289 42.8938 96.7773C43.2427 96.9258 43.6073 97 43.9875 97C44.3677 97 44.731 96.9258 45.0773 96.7773C45.4263 96.6289 45.7258 96.4297 45.9758 96.1797C46.2284 95.9271 46.4289 95.6276 46.5773 95.2812C46.7258 94.9323 46.8 94.5677 46.8 94.1875C46.8 93.8073 46.7258 93.444 46.5773 93.0977C46.4289 92.7487 46.2284 92.4492 45.9758 92.1992C45.7258 91.9466 45.4263 91.7461 45.0773 91.5977C44.731 91.4492 44.3677 91.375 43.9875 91.375C43.6073 91.375 43.2427 91.4492 42.8938 91.5977C42.5474 91.7461 42.2479 91.9466 41.9953 92.1992C41.7453 92.4492 41.5461 92.7487 41.3977 93.0977ZM41.1398 95.3906C40.9758 95.0078 40.8938 94.6068 40.8938 94.1875C40.8938 93.7682 40.9758 93.3685 41.1398 92.9883C41.3039 92.6055 41.524 92.276 41.8 92C42.076 91.724 42.4042 91.5039 42.7844 91.3398C43.1672 91.1758 43.5682 91.0938 43.9875 91.0938C44.4068 91.0938 44.8065 91.1758 45.1867 91.3398C45.5695 91.5039 45.899 91.724 46.175 92C46.451 92.276 46.6711 92.6055 46.8352 92.9883C46.9992 93.3685 47.0813 93.7682 47.0813 94.1875C47.0813 94.6068 46.9992 95.0078 46.8352 95.3906C46.6711 95.7708 46.451 96.099 46.175 96.375C45.899 96.651 45.5695 96.8711 45.1867 97.0352C44.8065 97.1992 44.4068 97.2812 43.9875 97.2812C43.5682 97.2812 43.1672 97.1992 42.7844 97.0352C42.4042 96.8711 42.076 96.651 41.8 96.375C41.524 96.099 41.3039 95.7708 41.1398 95.3906ZM53.2195 91.375H53.5008L51.7313 95.1016V97H51.45V95.1016L53.2195 91.375ZM52.657 91.375H52.9383L51.1688 95.1016V97H50.8875V95.1016L52.657 91.375ZM52.0945 91.375H52.3758L50.6063 95.1016V97H50.325V95.1016L52.0945 91.375ZM51.532 91.375H51.8133L50.0438 95.1016V97H49.7625V95.1016L47.8758 91.375H48.157L49.8992 94.8164L51.532 91.375ZM48.4422 91.375H48.7234L50.118 94.0273L49.9773 94.3359L48.4422 91.375ZM49.0047 91.375H49.2898L50.3992 93.4102L50.2547 93.7188L49.0047 91.375ZM49.575 91.375H49.8563L50.6805 92.7969L50.5398 93.1055L49.575 91.375ZM58.3734 94.2266C58.3734 93.8932 58.2706 93.6354 58.0648 93.4531C57.8591 93.2708 57.587 93.1797 57.2484 93.1797C56.962 93.1797 56.7159 93.2786 56.5102 93.4766C56.3044 93.6745 56.2016 93.9115 56.2016 94.1875C56.2016 94.3438 56.2224 94.4844 56.2641 94.6094C56.3057 94.7318 56.3617 94.8346 56.432 94.918C56.5049 94.9987 56.5909 95.0664 56.6898 95.1211C56.7888 95.1732 56.8917 95.2109 56.9984 95.2344C57.1078 95.2578 57.2237 95.2695 57.3461 95.2695C57.643 95.2695 57.9138 95.1966 58.1586 95.0508V95.332C57.906 95.4648 57.6339 95.5312 57.3422 95.5312C57.1547 95.5312 56.9776 95.5065 56.8109 95.457C56.6469 95.4049 56.4971 95.3281 56.3617 95.2266C56.2263 95.1224 56.1182 94.9818 56.0375 94.8047C55.9594 94.625 55.9203 94.4193 55.9203 94.1875C55.9203 93.8281 56.0466 93.5234 56.2992 93.2734C56.5518 93.0234 56.8682 92.8984 57.2484 92.8984C57.6677 92.8984 58.0062 93.0169 58.2641 93.2539C58.5245 93.4883 58.6547 93.8125 58.6547 94.2266V97H58.3734V94.2266ZM59.2172 94.2266V97H58.9359V94.2266C58.9359 93.7344 58.7784 93.3438 58.4633 93.0547C58.1482 92.763 57.7432 92.6172 57.2484 92.6172C56.7901 92.6172 56.4073 92.7695 56.1 93.0742C55.7927 93.3789 55.6391 93.75 55.6391 94.1875C55.6391 94.4531 55.6846 94.6914 55.7758 94.9023C55.8695 95.1133 55.9958 95.2826 56.1547 95.4102C56.3135 95.5378 56.4906 95.6354 56.6859 95.7031C56.8839 95.7682 57.0922 95.8008 57.3109 95.8008C57.6078 95.8008 57.8904 95.7318 58.1586 95.5938V95.8906C57.8773 96.0078 57.5935 96.0664 57.307 96.0664C57.0492 96.0664 56.8044 96.0273 56.5727 95.9492C56.3409 95.8685 56.1339 95.7526 55.9516 95.6016C55.7693 95.4479 55.6247 95.25 55.518 95.0078C55.4112 94.763 55.3578 94.4896 55.3578 94.1875C55.3578 93.6745 55.5388 93.2383 55.9008 92.8789C56.2654 92.5169 56.7146 92.3359 57.2484 92.3359C57.6234 92.3359 57.9594 92.4128 58.2562 92.5664C58.5531 92.7174 58.7875 92.9375 58.9594 93.2266C59.1312 93.5156 59.2172 93.849 59.2172 94.2266ZM59.7797 94.2266V97H59.4984V94.2266C59.4984 93.7969 59.3995 93.4167 59.2016 93.0859C59.0062 92.7526 58.738 92.4974 58.3969 92.3203C58.0557 92.1432 57.6729 92.0547 57.2484 92.0547C56.8448 92.0547 56.4763 92.151 56.143 92.3438C55.8096 92.5339 55.5479 92.7917 55.3578 93.1172C55.1703 93.4427 55.0766 93.7995 55.0766 94.1875C55.0766 94.5208 55.1378 94.8255 55.2602 95.1016C55.3826 95.375 55.5466 95.6003 55.7523 95.7773C55.9607 95.9544 56.1964 96.0924 56.4594 96.1914C56.725 96.2878 57.0023 96.3359 57.2914 96.3359C57.5857 96.3359 57.8747 96.2747 58.1586 96.1523V96.4375C57.8617 96.5495 57.5701 96.6055 57.2836 96.6055C56.8331 96.6055 56.419 96.5039 56.0414 96.3008C55.6638 96.0977 55.3617 95.8099 55.1352 95.4375C54.9086 95.0651 54.7953 94.6484 54.7953 94.1875C54.7953 93.8594 54.8578 93.5469 54.9828 93.25C55.1104 92.9531 55.2823 92.6966 55.4984 92.4805C55.7146 92.2643 55.975 92.0924 56.2797 91.9648C56.5844 91.8372 56.9073 91.7734 57.2484 91.7734C57.725 91.7734 58.1547 91.875 58.5375 92.0781C58.9229 92.2812 59.2263 92.5703 59.4477 92.9453C59.669 93.3203 59.7797 93.7474 59.7797 94.2266ZM60.3422 94.2266V97H60.0609V94.2266C60.0609 93.6953 59.9372 93.2214 59.6898 92.8047C59.4424 92.3854 59.1052 92.0625 58.6781 91.8359C58.251 91.6068 57.7745 91.4922 57.2484 91.4922C56.7432 91.4922 56.281 91.6133 55.8617 91.8555C55.4424 92.0977 55.113 92.4258 54.8734 92.8398C54.6339 93.2513 54.5141 93.7005 54.5141 94.1875C54.5141 94.5078 54.5648 94.8125 54.6664 95.1016C54.7706 95.388 54.9112 95.6393 55.0883 95.8555C55.268 96.069 55.4737 96.2539 55.7055 96.4102C55.9398 96.5664 56.1911 96.6849 56.4594 96.7656C56.7302 96.8464 57.0049 96.8867 57.2836 96.8867C57.5909 96.8867 57.8826 96.8281 58.1586 96.7109V97C57.8695 97.1016 57.5727 97.1523 57.268 97.1523C56.9529 97.1523 56.6456 97.1081 56.3461 97.0195C56.0492 96.931 55.7732 96.8008 55.518 96.6289C55.2654 96.4544 55.0427 96.25 54.85 96.0156C54.6573 95.7786 54.5062 95.5026 54.3969 95.1875C54.2875 94.8724 54.2328 94.5391 54.2328 94.1875C54.2328 93.7839 54.3083 93.3997 54.4594 93.0352C54.613 92.668 54.8214 92.3516 55.0844 92.0859C55.35 91.8177 55.6703 91.6055 56.0453 91.4492C56.4229 91.2904 56.824 91.2109 57.2484 91.2109C57.6807 91.2109 58.087 91.2839 58.4672 91.4297C58.8474 91.5755 59.1755 91.7786 59.4516 92.0391C59.7276 92.2969 59.9451 92.6146 60.1039 92.9922C60.2628 93.3698 60.3422 93.7812 60.3422 94.2266ZM65.0312 93.4844V97H64.75V93.4844C64.75 93.4089 64.737 93.3451 64.7109 93.293C64.6875 93.2383 64.6562 93.1966 64.6172 93.168C64.5781 93.1393 64.526 93.1172 64.4609 93.1016C64.3984 93.0833 64.3372 93.0729 64.2773 93.0703C64.2174 93.0651 64.1432 93.0625 64.0547 93.0625C63.9661 93.0625 63.8919 93.0651 63.832 93.0703C63.7721 93.0729 63.7096 93.0833 63.6445 93.1016C63.582 93.1172 63.5312 93.1393 63.4922 93.168C63.4531 93.1966 63.4206 93.2383 63.3945 93.293C63.3711 93.3451 63.3594 93.4089 63.3594 93.4844V97H63.0781V93.4844C63.0781 93.0156 63.4036 92.7812 64.0547 92.7812C64.7057 92.7812 65.0312 93.0156 65.0312 93.4844ZM65.5938 93.4844V97H65.3125V93.4844C65.3125 93.1536 65.1953 92.9076 64.9609 92.7461C64.7292 92.582 64.4271 92.5 64.0547 92.5C63.6823 92.5 63.3789 92.582 63.1445 92.7461C62.9128 92.9076 62.7969 93.1536 62.7969 93.4844V97H62.5156V93.4844C62.5156 93.2109 62.5859 92.9766 62.7266 92.7812C62.8672 92.5859 63.0508 92.444 63.2773 92.3555C63.5065 92.2643 63.7656 92.2188 64.0547 92.2188C64.3438 92.2188 64.6016 92.2643 64.8281 92.3555C65.0573 92.444 65.2422 92.5859 65.3828 92.7812C65.5234 92.9766 65.5938 93.2109 65.5938 93.4844ZM66.1562 93.4844V97H65.875V93.4844C65.875 93.2396 65.8268 93.0182 65.7305 92.8203C65.6367 92.6224 65.5065 92.4596 65.3398 92.332C65.1732 92.2044 64.9805 92.1068 64.7617 92.0391C64.543 91.9714 64.3073 91.9375 64.0547 91.9375C63.8021 91.9375 63.5664 91.9714 63.3477 92.0391C63.1289 92.1068 62.9362 92.2044 62.7695 92.332C62.6029 92.4596 62.4714 92.6224 62.375 92.8203C62.2812 93.0182 62.2344 93.2396 62.2344 93.4844V97H61.9531V93.4844C61.9531 93.2005 62.0078 92.9427 62.1172 92.7109C62.2292 92.4792 62.3802 92.2878 62.5703 92.1367C62.7604 91.9831 62.9831 91.8646 63.2383 91.7812C63.4935 91.6979 63.7656 91.6562 64.0547 91.6562C64.3438 91.6562 64.6159 91.6979 64.8711 91.7812C65.1263 91.8646 65.349 91.9831 65.5391 92.1367C65.7292 92.2878 65.8789 92.4792 65.9883 92.7109C66.1003 92.9427 66.1562 93.2005 66.1562 93.4844ZM66.7188 97H66.4375V93.4844C66.4375 93.2005 66.3737 92.9284 66.2461 92.668C66.1211 92.4076 65.9518 92.1836 65.7383 91.9961C65.5247 91.806 65.2708 91.6549 64.9766 91.543C64.6823 91.431 64.375 91.375 64.0547 91.375C63.6146 91.375 63.2148 91.4583 62.8555 91.625C62.4987 91.7891 62.2122 92.0339 61.9961 92.3594C61.7799 92.6823 61.6719 93.0573 61.6719 93.4844V97H61.3906V93.4844C61.3906 93.125 61.4609 92.7943 61.6016 92.4922C61.7422 92.1901 61.9323 91.9375 62.1719 91.7344C62.4141 91.5312 62.6966 91.3737 63.0195 91.2617C63.3451 91.1497 63.6901 91.0938 64.0547 91.0938C64.7005 91.0938 65.2604 91.2565 65.7344 91.582C66.2083 91.2565 66.7682 91.0938 67.4141 91.0938C67.7786 91.0938 68.1224 91.1497 68.4453 91.2617C68.7708 91.3737 69.0534 91.5312 69.293 91.7344C69.5352 91.9375 69.7266 92.1901 69.8672 92.4922C70.0078 92.7943 70.0781 93.125 70.0781 93.4844V97H69.7969V93.4844C69.7969 93.0599 69.6888 92.6862 69.4727 92.3633C69.2565 92.0378 68.9688 91.7917 68.6094 91.625C68.2526 91.4583 67.8542 91.375 67.4141 91.375C66.862 91.375 66.3802 91.5052 65.9688 91.7656C66.0286 91.8177 66.0951 91.8854 66.168 91.9688C66.5247 91.7604 66.9401 91.6562 67.4141 91.6562C67.7031 91.6562 67.9753 91.6979 68.2305 91.7812C68.4857 91.8646 68.7083 91.9831 68.8984 92.1367C69.0885 92.2878 69.2383 92.4792 69.3477 92.7109C69.4596 92.9427 69.5156 93.2005 69.5156 93.4844V97H69.2344V93.4844C69.2344 93.2396 69.1862 93.0182 69.0898 92.8203C68.9961 92.6224 68.8659 92.4596 68.6992 92.332C68.5326 92.2044 68.3398 92.1068 68.1211 92.0391C67.9023 91.9714 67.6667 91.9375 67.4141 91.9375C67 91.9375 66.6419 92.0221 66.3398 92.1914C66.3867 92.2643 66.4336 92.3451 66.4805 92.4336C66.7357 92.2904 67.0469 92.2188 67.4141 92.2188C67.7031 92.2188 67.9609 92.2643 68.1875 92.3555C68.4167 92.444 68.6016 92.5859 68.7422 92.7812C68.8828 92.9766 68.9531 93.2109 68.9531 93.4844V97H68.6719V93.4844C68.6719 93.1536 68.5547 92.9076 68.3203 92.7461C68.0885 92.582 67.7865 92.5 67.4141 92.5C67.0755 92.5 66.8008 92.5625 66.5898 92.6875C66.6237 92.7865 66.6497 92.8802 66.668 92.9688C66.832 92.8438 67.0807 92.7812 67.4141 92.7812C68.0651 92.7812 68.3906 93.0156 68.3906 93.4844V97H68.1094V93.4844C68.1094 93.4089 68.0964 93.3451 68.0703 93.293C68.0469 93.2383 68.0156 93.1966 67.9766 93.168C67.9375 93.1393 67.8854 93.1172 67.8203 93.1016C67.7578 93.0833 67.6966 93.0729 67.6367 93.0703C67.5768 93.0651 67.5026 93.0625 67.4141 93.0625C67.3255 93.0625 67.2513 93.0651 67.1914 93.0703C67.1315 93.0729 67.069 93.0833 67.0039 93.1016C66.9414 93.1172 66.8906 93.1393 66.8516 93.168C66.8125 93.1966 66.7799 93.2383 66.7539 93.293C66.7305 93.3451 66.7188 93.4089 66.7188 93.4844V97ZM75.1734 94.2266C75.1734 93.8932 75.0706 93.6354 74.8648 93.4531C74.6591 93.2708 74.387 93.1797 74.0484 93.1797C73.762 93.1797 73.5159 93.2786 73.3102 93.4766C73.1044 93.6745 73.0016 93.9115 73.0016 94.1875C73.0016 94.3438 73.0224 94.4844 73.0641 94.6094C73.1057 94.7318 73.1617 94.8346 73.232 94.918C73.3049 94.9987 73.3909 95.0664 73.4898 95.1211C73.5888 95.1732 73.6917 95.2109 73.7984 95.2344C73.9078 95.2578 74.0237 95.2695 74.1461 95.2695C74.443 95.2695 74.7138 95.1966 74.9586 95.0508V95.332C74.706 95.4648 74.4339 95.5312 74.1422 95.5312C73.9547 95.5312 73.7776 95.5065 73.6109 95.457C73.4469 95.4049 73.2971 95.3281 73.1617 95.2266C73.0263 95.1224 72.9182 94.9818 72.8375 94.8047C72.7594 94.625 72.7203 94.4193 72.7203 94.1875C72.7203 93.8281 72.8466 93.5234 73.0992 93.2734C73.3518 93.0234 73.6682 92.8984 74.0484 92.8984C74.4677 92.8984 74.8063 93.0169 75.0641 93.2539C75.3245 93.4883 75.4547 93.8125 75.4547 94.2266V97H75.1734V94.2266ZM76.0172 94.2266V97H75.7359V94.2266C75.7359 93.7344 75.5784 93.3438 75.2633 93.0547C74.9482 92.763 74.5432 92.6172 74.0484 92.6172C73.5901 92.6172 73.2073 92.7695 72.9 93.0742C72.5927 93.3789 72.4391 93.75 72.4391 94.1875C72.4391 94.4531 72.4846 94.6914 72.5758 94.9023C72.6695 95.1133 72.7958 95.2826 72.9547 95.4102C73.1135 95.5378 73.2906 95.6354 73.4859 95.7031C73.6839 95.7682 73.8922 95.8008 74.1109 95.8008C74.4078 95.8008 74.6904 95.7318 74.9586 95.5938V95.8906C74.6773 96.0078 74.3935 96.0664 74.107 96.0664C73.8492 96.0664 73.6044 96.0273 73.3727 95.9492C73.1409 95.8685 72.9339 95.7526 72.7516 95.6016C72.5693 95.4479 72.4247 95.25 72.318 95.0078C72.2112 94.763 72.1578 94.4896 72.1578 94.1875C72.1578 93.6745 72.3388 93.2383 72.7008 92.8789C73.0654 92.5169 73.5146 92.3359 74.0484 92.3359C74.4234 92.3359 74.7594 92.4128 75.0563 92.5664C75.3531 92.7174 75.5875 92.9375 75.7594 93.2266C75.9313 93.5156 76.0172 93.849 76.0172 94.2266ZM76.5797 94.2266V97H76.2984V94.2266C76.2984 93.7969 76.1995 93.4167 76.0016 93.0859C75.8063 92.7526 75.538 92.4974 75.1969 92.3203C74.8557 92.1432 74.4729 92.0547 74.0484 92.0547C73.6448 92.0547 73.2763 92.151 72.943 92.3438C72.6096 92.5339 72.3479 92.7917 72.1578 93.1172C71.9703 93.4427 71.8766 93.7995 71.8766 94.1875C71.8766 94.5208 71.9378 94.8255 72.0602 95.1016C72.1826 95.375 72.3466 95.6003 72.5523 95.7773C72.7607 95.9544 72.9964 96.0924 73.2594 96.1914C73.525 96.2878 73.8023 96.3359 74.0914 96.3359C74.3857 96.3359 74.6747 96.2747 74.9586 96.1523V96.4375C74.6617 96.5495 74.3701 96.6055 74.0836 96.6055C73.6331 96.6055 73.219 96.5039 72.8414 96.3008C72.4638 96.0977 72.1617 95.8099 71.9352 95.4375C71.7086 95.0651 71.5953 94.6484 71.5953 94.1875C71.5953 93.8594 71.6578 93.5469 71.7828 93.25C71.9104 92.9531 72.0823 92.6966 72.2984 92.4805C72.5146 92.2643 72.775 92.0924 73.0797 91.9648C73.3844 91.8372 73.7073 91.7734 74.0484 91.7734C74.525 91.7734 74.9547 91.875 75.3375 92.0781C75.7229 92.2812 76.0263 92.5703 76.2477 92.9453C76.469 93.3203 76.5797 93.7474 76.5797 94.2266ZM77.1422 94.2266V97H76.8609V94.2266C76.8609 93.6953 76.7372 93.2214 76.4898 92.8047C76.2424 92.3854 75.9052 92.0625 75.4781 91.8359C75.051 91.6068 74.5745 91.4922 74.0484 91.4922C73.5432 91.4922 73.081 91.6133 72.6617 91.8555C72.2424 92.0977 71.913 92.4258 71.6734 92.8398C71.4339 93.2513 71.3141 93.7005 71.3141 94.1875C71.3141 94.5078 71.3648 94.8125 71.4664 95.1016C71.5706 95.388 71.7112 95.6393 71.8883 95.8555C72.068 96.069 72.2737 96.2539 72.5055 96.4102C72.7398 96.5664 72.9911 96.6849 73.2594 96.7656C73.5302 96.8464 73.8049 96.8867 74.0836 96.8867C74.3909 96.8867 74.6826 96.8281 74.9586 96.7109V97C74.6695 97.1016 74.3727 97.1523 74.068 97.1523C73.7529 97.1523 73.4456 97.1081 73.1461 97.0195C72.8492 96.931 72.5732 96.8008 72.318 96.6289C72.0654 96.4544 71.8427 96.25 71.65 96.0156C71.4573 95.7786 71.3063 95.5026 71.1969 95.1875C71.0875 94.8724 71.0328 94.5391 71.0328 94.1875C71.0328 93.7839 71.1083 93.3997 71.2594 93.0352C71.413 92.668 71.6214 92.3516 71.8844 92.0859C72.15 91.8177 72.4703 91.6055 72.8453 91.4492C73.2229 91.2904 73.624 91.2109 74.0484 91.2109C74.4807 91.2109 74.887 91.2839 75.2672 91.4297C75.6474 91.5755 75.9755 91.7786 76.2516 92.0391C76.5276 92.2969 76.7451 92.6146 76.9039 92.9922C77.0628 93.3698 77.1422 93.7812 77.1422 94.2266Z" fill="white"/>
<path d="M30.9531 84.7812H32.6484C32.9062 84.7812 33.1237 84.6979 33.3008 84.5312C33.4805 84.3646 33.5703 84.1276 33.5703 83.8203C33.5703 83.5938 33.4766 83.3906 33.2891 83.2109C33.1016 83.0286 32.888 82.9375 32.6484 82.9375H30.2344V88H29.9531V82.6562H32.6484C32.9661 82.6562 33.2461 82.7747 33.4883 83.0117C33.7305 83.2461 33.8516 83.5156 33.8516 83.8203C33.8516 84.1953 33.7344 84.4961 33.5 84.7227C33.2656 84.9492 32.9818 85.0625 32.6484 85.0625H30.9531V84.7812ZM30.9531 85.3438H32.6484C33.0547 85.3438 33.4036 85.2018 33.6953 84.918C33.987 84.6315 34.1328 84.2656 34.1328 83.8203C34.1328 83.4375 33.9831 83.1016 33.6836 82.8125C33.3867 82.5208 33.0417 82.375 32.6484 82.375H29.6719V88H29.3906V82.0938H32.6484C32.9583 82.0938 33.2487 82.1732 33.5195 82.332C33.793 82.4909 34.0104 82.7044 34.1719 82.9727C34.3333 83.2383 34.4141 83.5208 34.4141 83.8203C34.4141 84.3333 34.2396 84.763 33.8906 85.1094C33.5443 85.4531 33.1302 85.625 32.6484 85.625H30.9531V85.3438ZM30.9531 85.9062H32.6484C33.013 85.9062 33.3516 85.8164 33.6641 85.6367C33.9766 85.457 34.2266 85.207 34.4141 84.8867C34.6016 84.5638 34.6953 84.2083 34.6953 83.8203C34.6953 83.4688 34.6016 83.1393 34.4141 82.832C34.2292 82.5221 33.9792 82.2747 33.6641 82.0898C33.349 81.9049 33.0104 81.8125 32.6484 81.8125H29.1094V88H28.8281V81.5312H32.6484C33.0573 81.5312 33.4414 81.6367 33.8008 81.8477C34.1602 82.056 34.4453 82.3372 34.6562 82.6914C34.8698 83.043 34.9766 83.4193 34.9766 83.8203C34.9766 84.2839 34.8763 84.6914 34.6758 85.043C34.4779 85.3945 34.2083 85.6693 33.8672 85.8672L34.5938 88H34.2969L33.6016 86C33.4974 86.0417 33.418 86.0703 33.3633 86.0859L34.0156 88H33.7188L33.082 86.1523C33.0586 86.1576 32.9753 86.1667 32.832 86.1797L33.4375 88H33.1406L32.543 86.1875H32.2891L32.8594 88H32.5625L31.9883 86.1875H30.9531V85.9062ZM30.7969 88H30.5156V83.2188H32.6484C32.8229 83.2188 32.9727 83.2786 33.0977 83.3984C33.2253 83.5156 33.2891 83.6562 33.2891 83.8203C33.2891 84.2734 33.0755 84.5 32.6484 84.5H30.9531V84.2188H32.6484C32.7604 84.2188 32.8477 84.1901 32.9102 84.1328C32.9753 84.0729 33.0078 83.9688 33.0078 83.8203C33.0078 83.7292 32.9727 83.6536 32.9023 83.5938C32.8346 83.5312 32.75 83.5 32.6484 83.5H30.7969V88ZM40.3703 85.2266C40.3703 84.8932 40.2674 84.6354 40.0617 84.4531C39.856 84.2708 39.5839 84.1797 39.2453 84.1797C38.9589 84.1797 38.7128 84.2786 38.507 84.4766C38.3013 84.6745 38.1984 84.9115 38.1984 85.1875C38.1984 85.3438 38.2193 85.4844 38.2609 85.6094C38.3026 85.7318 38.3586 85.8346 38.4289 85.918C38.5018 85.9987 38.5878 86.0664 38.6867 86.1211C38.7857 86.1732 38.8885 86.2109 38.9953 86.2344C39.1047 86.2578 39.2206 86.2695 39.343 86.2695C39.6398 86.2695 39.9107 86.1966 40.1555 86.0508V86.332C39.9029 86.4648 39.6307 86.5312 39.3391 86.5312C39.1516 86.5312 38.9745 86.5065 38.8078 86.457C38.6437 86.4049 38.494 86.3281 38.3586 86.2266C38.2232 86.1224 38.1151 85.9818 38.0344 85.8047C37.9562 85.625 37.9172 85.4193 37.9172 85.1875C37.9172 84.8281 38.0435 84.5234 38.2961 84.2734C38.5487 84.0234 38.8651 83.8984 39.2453 83.8984C39.6646 83.8984 40.0031 84.0169 40.2609 84.2539C40.5214 84.4883 40.6516 84.8125 40.6516 85.2266V88H40.3703V85.2266ZM41.2141 85.2266V88H40.9328V85.2266C40.9328 84.7344 40.7753 84.3438 40.4602 84.0547C40.1451 83.763 39.7401 83.6172 39.2453 83.6172C38.787 83.6172 38.4042 83.7695 38.0969 84.0742C37.7896 84.3789 37.6359 84.75 37.6359 85.1875C37.6359 85.4531 37.6815 85.6914 37.7727 85.9023C37.8664 86.1133 37.9927 86.2826 38.1516 86.4102C38.3104 86.5378 38.4875 86.6354 38.6828 86.7031C38.8807 86.7682 39.0891 86.8008 39.3078 86.8008C39.6047 86.8008 39.8872 86.7318 40.1555 86.5938V86.8906C39.8742 87.0078 39.5904 87.0664 39.3039 87.0664C39.0461 87.0664 38.8013 87.0273 38.5695 86.9492C38.3378 86.8685 38.1307 86.7526 37.9484 86.6016C37.7661 86.4479 37.6216 86.25 37.5148 86.0078C37.4081 85.763 37.3547 85.4896 37.3547 85.1875C37.3547 84.6745 37.5357 84.2383 37.8977 83.8789C38.2622 83.5169 38.7115 83.3359 39.2453 83.3359C39.6203 83.3359 39.9562 83.4128 40.2531 83.5664C40.55 83.7174 40.7844 83.9375 40.9562 84.2266C41.1281 84.5156 41.2141 84.849 41.2141 85.2266ZM41.7766 85.2266V88H41.4953V85.2266C41.4953 84.7969 41.3964 84.4167 41.1984 84.0859C41.0031 83.7526 40.7349 83.4974 40.3937 83.3203C40.0526 83.1432 39.6698 83.0547 39.2453 83.0547C38.8417 83.0547 38.4732 83.151 38.1398 83.3438C37.8065 83.5339 37.5448 83.7917 37.3547 84.1172C37.1672 84.4427 37.0734 84.7995 37.0734 85.1875C37.0734 85.5208 37.1346 85.8255 37.257 86.1016C37.3794 86.375 37.5435 86.6003 37.7492 86.7773C37.9576 86.9544 38.1932 87.0924 38.4562 87.1914C38.7219 87.2878 38.9992 87.3359 39.2883 87.3359C39.5826 87.3359 39.8716 87.2747 40.1555 87.1523V87.4375C39.8586 87.5495 39.5669 87.6055 39.2805 87.6055C38.8299 87.6055 38.4159 87.5039 38.0383 87.3008C37.6607 87.0977 37.3586 86.8099 37.132 86.4375C36.9055 86.0651 36.7922 85.6484 36.7922 85.1875C36.7922 84.8594 36.8547 84.5469 36.9797 84.25C37.1073 83.9531 37.2792 83.6966 37.4953 83.4805C37.7115 83.2643 37.9719 83.0924 38.2766 82.9648C38.5812 82.8372 38.9042 82.7734 39.2453 82.7734C39.7219 82.7734 40.1516 82.875 40.5344 83.0781C40.9198 83.2812 41.2232 83.5703 41.4445 83.9453C41.6659 84.3203 41.7766 84.7474 41.7766 85.2266ZM42.3391 85.2266V88H42.0578V85.2266C42.0578 84.6953 41.9341 84.2214 41.6867 83.8047C41.4393 83.3854 41.1021 83.0625 40.675 82.8359C40.2479 82.6068 39.7714 82.4922 39.2453 82.4922C38.7401 82.4922 38.2779 82.6133 37.8586 82.8555C37.4393 83.0977 37.1099 83.4258 36.8703 83.8398C36.6307 84.2513 36.5109 84.7005 36.5109 85.1875C36.5109 85.5078 36.5617 85.8125 36.6633 86.1016C36.7674 86.388 36.9081 86.6393 37.0852 86.8555C37.2648 87.069 37.4706 87.2539 37.7023 87.4102C37.9367 87.5664 38.188 87.6849 38.4562 87.7656C38.7271 87.8464 39.0018 87.8867 39.2805 87.8867C39.5878 87.8867 39.8794 87.8281 40.1555 87.7109V88C39.8664 88.1016 39.5695 88.1523 39.2648 88.1523C38.9497 88.1523 38.6424 88.1081 38.343 88.0195C38.0461 87.931 37.7701 87.8008 37.5148 87.6289C37.2622 87.4544 37.0396 87.25 36.8469 87.0156C36.6542 86.7786 36.5031 86.5026 36.3937 86.1875C36.2844 85.8724 36.2297 85.5391 36.2297 85.1875C36.2297 84.7839 36.3052 84.3997 36.4562 84.0352C36.6099 83.668 36.8182 83.3516 37.0812 83.0859C37.3469 82.8177 37.6672 82.6055 38.0422 82.4492C38.4198 82.2904 38.8208 82.2109 39.2453 82.2109C39.6776 82.2109 40.0839 82.2839 40.4641 82.4297C40.8443 82.5755 41.1724 82.7786 41.4484 83.0391C41.7245 83.2969 41.9419 83.6146 42.1008 83.9922C42.2596 84.3698 42.3391 84.7812 42.3391 85.2266ZM45.8031 88H45.5219V82.375H48.2055V82.6562H45.8031V82.9375H48.2055V83.2188H45.8031V83.5H48.2055V83.7812H45.8031V84.6406H48.018V84.9219H45.8031V85.2031H48.018V85.4844H45.8031V85.7656H48.018V86.0469H45.8031V88ZM45.2406 88H44.9594V82.375H45.2406V88ZM44.6781 88H44.3969V82.375H44.6781V88ZM44.1156 88H43.8344V82.375H44.1156V88ZM53.6344 85.2266C53.6344 84.8932 53.5315 84.6354 53.3258 84.4531C53.1201 84.2708 52.8479 84.1797 52.5094 84.1797C52.2229 84.1797 51.9768 84.2786 51.7711 84.4766C51.5654 84.6745 51.4625 84.9115 51.4625 85.1875C51.4625 85.3438 51.4833 85.4844 51.525 85.6094C51.5667 85.7318 51.6227 85.8346 51.693 85.918C51.7659 85.9987 51.8518 86.0664 51.9508 86.1211C52.0497 86.1732 52.1526 86.2109 52.2594 86.2344C52.3688 86.2578 52.4846 86.2695 52.607 86.2695C52.9039 86.2695 53.1747 86.1966 53.4195 86.0508V86.332C53.1669 86.4648 52.8948 86.5312 52.6031 86.5312C52.4156 86.5312 52.2385 86.5065 52.0719 86.457C51.9078 86.4049 51.7581 86.3281 51.6227 86.2266C51.4872 86.1224 51.3792 85.9818 51.2984 85.8047C51.2203 85.625 51.1813 85.4193 51.1813 85.1875C51.1813 84.8281 51.3076 84.5234 51.5602 84.2734C51.8128 84.0234 52.1292 83.8984 52.5094 83.8984C52.9286 83.8984 53.2672 84.0169 53.525 84.2539C53.7854 84.4883 53.9156 84.8125 53.9156 85.2266V88H53.6344V85.2266ZM54.4781 85.2266V88H54.1969V85.2266C54.1969 84.7344 54.0393 84.3438 53.7242 84.0547C53.4091 83.763 53.0042 83.6172 52.5094 83.6172C52.051 83.6172 51.6682 83.7695 51.3609 84.0742C51.0536 84.3789 50.9 84.75 50.9 85.1875C50.9 85.4531 50.9456 85.6914 51.0367 85.9023C51.1305 86.1133 51.2568 86.2826 51.4156 86.4102C51.5745 86.5378 51.7516 86.6354 51.9469 86.7031C52.1448 86.7682 52.3531 86.8008 52.5719 86.8008C52.8688 86.8008 53.1513 86.7318 53.4195 86.5938V86.8906C53.1383 87.0078 52.8544 87.0664 52.568 87.0664C52.3102 87.0664 52.0654 87.0273 51.8336 86.9492C51.6018 86.8685 51.3948 86.7526 51.2125 86.6016C51.0302 86.4479 50.8857 86.25 50.7789 86.0078C50.6721 85.763 50.6188 85.4896 50.6188 85.1875C50.6188 84.6745 50.7997 84.2383 51.1617 83.8789C51.5263 83.5169 51.9755 83.3359 52.5094 83.3359C52.8844 83.3359 53.2203 83.4128 53.5172 83.5664C53.8141 83.7174 54.0484 83.9375 54.2203 84.2266C54.3922 84.5156 54.4781 84.849 54.4781 85.2266ZM55.0406 85.2266V88H54.7594V85.2266C54.7594 84.7969 54.6604 84.4167 54.4625 84.0859C54.2672 83.7526 53.999 83.4974 53.6578 83.3203C53.3167 83.1432 52.9339 83.0547 52.5094 83.0547C52.1057 83.0547 51.7372 83.151 51.4039 83.3438C51.0706 83.5339 50.8089 83.7917 50.6188 84.1172C50.4313 84.4427 50.3375 84.7995 50.3375 85.1875C50.3375 85.5208 50.3987 85.8255 50.5211 86.1016C50.6435 86.375 50.8076 86.6003 51.0133 86.7773C51.2216 86.9544 51.4573 87.0924 51.7203 87.1914C51.9859 87.2878 52.2633 87.3359 52.5523 87.3359C52.8466 87.3359 53.1357 87.2747 53.4195 87.1523V87.4375C53.1227 87.5495 52.831 87.6055 52.5445 87.6055C52.094 87.6055 51.6799 87.5039 51.3023 87.3008C50.9247 87.0977 50.6227 86.8099 50.3961 86.4375C50.1695 86.0651 50.0563 85.6484 50.0563 85.1875C50.0563 84.8594 50.1188 84.5469 50.2438 84.25C50.3714 83.9531 50.5432 83.6966 50.7594 83.4805C50.9755 83.2643 51.2359 83.0924 51.5406 82.9648C51.8453 82.8372 52.1682 82.7734 52.5094 82.7734C52.9859 82.7734 53.4156 82.875 53.7984 83.0781C54.1839 83.2812 54.4872 83.5703 54.7086 83.9453C54.9299 84.3203 55.0406 84.7474 55.0406 85.2266ZM55.6031 85.2266V88H55.3219V85.2266C55.3219 84.6953 55.1982 84.2214 54.9508 83.8047C54.7034 83.3854 54.3661 83.0625 53.9391 82.8359C53.512 82.6068 53.0354 82.4922 52.5094 82.4922C52.0042 82.4922 51.5419 82.6133 51.1227 82.8555C50.7034 83.0977 50.374 83.4258 50.1344 83.8398C49.8948 84.2513 49.775 84.7005 49.775 85.1875C49.775 85.5078 49.8258 85.8125 49.9273 86.1016C50.0315 86.388 50.1721 86.6393 50.3492 86.8555C50.5289 87.069 50.7346 87.2539 50.9664 87.4102C51.2008 87.5664 51.4521 87.6849 51.7203 87.7656C51.9911 87.8464 52.2659 87.8867 52.5445 87.8867C52.8518 87.8867 53.1435 87.8281 53.4195 87.7109V88C53.1305 88.1016 52.8336 88.1523 52.5289 88.1523C52.2138 88.1523 51.9065 88.1081 51.607 88.0195C51.3102 87.931 51.0341 87.8008 50.7789 87.6289C50.5263 87.4544 50.3036 87.25 50.1109 87.0156C49.9182 86.7786 49.7672 86.5026 49.6578 86.1875C49.5484 85.8724 49.4938 85.5391 49.4938 85.1875C49.4938 84.7839 49.5693 84.3997 49.7203 84.0352C49.874 83.668 50.0823 83.3516 50.3453 83.0859C50.6109 82.8177 50.9313 82.6055 51.3063 82.4492C51.6839 82.2904 52.0849 82.2109 52.5094 82.2109C52.9417 82.2109 53.3479 82.2839 53.7281 82.4297C54.1083 82.5755 54.4365 82.7786 54.7125 83.0391C54.9885 83.2969 55.206 83.6146 55.3648 83.9922C55.5237 84.3698 55.6031 84.7812 55.6031 85.2266ZM58.5047 88H58.2234V82.375H58.5047V88ZM57.9422 88H57.6609V82.375H57.9422V88ZM57.3797 88H57.0984V82.375H57.3797V88ZM59.0672 86.5938H61.7586V86.875H59.0672V87.1562H61.7586V87.4375H59.0672V87.7188H61.7586V88H58.7859V82.375H61.7586V82.6562H59.0672V82.9375H61.7586V83.2188H59.0672V83.5H61.7586V83.7812H59.0672V84.4805H61.6023V84.7617H59.0672V85.043H61.6023V85.3242H59.0672V85.6055H61.6023V85.8867H59.0672V86.5938ZM63.2344 82.375H63.5156V88H63.2344V82.375ZM64.9219 82.375H65.2031V86.5938H67.2773V86.875H65.2031V87.1562H67.2773V87.4375H65.2031V87.7188H67.2773V88H64.9219V82.375ZM64.3594 82.375H64.6406V88H64.3594V82.375ZM63.7969 82.375H64.0781V88H63.7969V82.375Z" fill="white"/>
<defs>
<linearGradient id="paint0_linear" x1="67.5" y1="0" x2="67.5" y2="135" gradientUnits="userSpaceOnUse">
<stop stop-color="#7C5CDF"/>
<stop offset="1" stop-color="#13C3F9"/>
</linearGradient>
</defs>
</svg>
